<svg id="Layer_1" data-name="Layer 1" xmlns="http://www.w3.org/2000/svg" viewBox="0 0 416 426"><defs><style>.cls-1,.cls-2{fill:none;stroke:#231f20;stroke-width:3px;fill-rule:evenodd;}.cls-1{stroke-miterlimit:10;}</style></defs><title>happy</title><path class="cls-1" d="M195.1,13.91c56.46-.83,89.3,23,105.75,61.5,30.7,71.93-23,132.07-81.75,141.75C149.89,228.57,88,157.05,108.85,88.16c8.92-29.46,29.43-54.46,56.25-66Z"/><path class="cls-2" d="M162.1,82.16v22.5h22.5V82.16Z"/><path class="cls-2" d="M229.6,82.16v22.5h22.5V82.16Z"/><path class="cls-2" d="M173.35,130.16l-17.25,8.25c18.83,40.35,87.18,46.71,102-.75l-20.25-7.5c-5.08,14.89-29.36,26.82-48,15.75C183.42,142.09,180.33,132.56,173.35,130.16Z"/><path class="cls-2" d="M15.1,149.66c55.36,0,41.78,31.43,51.75,74.25,5.79,24.86,14,46.38,27,63.75,4.86,6.5,10,14.83,18.75,17.25l9-18.75-14.25-15c-9.48-14.25-16.43-34.06-19.5-54,21.25,1.19,37.17,8.73,51,17.25,49.18,30.33,57.47,82.75,57,163.5h-90c.4-31.36-21.87-42.46-39-56.25L40.6,310.16C15.75,270.57,15.05,216.08,15.1,149.66Z"/><path class="cls-2" d="M399.1,149.66c.67,66.19-.89,121.22-25.5,160.5a165.86,165.86,0,0,1-34.5,39c-10,8-24.31,17.28-29.25,30l-1.5,18.75h-90c-.38-35.5-1.11-72.48,7.5-100.5,12.89-42,49-77.15,100.5-80.25-4,29.17-16.42,52.85-33.75,69l9,18.75,3-1.5c24.35-11.58,35.87-50.32,42.75-79.5C357.15,182.32,346.4,149.06,399.1,149.66Z"/></svg>